
<svg width="442" height="317" viewBox="0 0 442 317" fill="none" xmlns="http://www.w3.org/2000/svg">
<g style="mix-blend-mode:difference" filter="url(#filter0_d_4_9)">
<path d="M105 84.6675C105 66.7194 120.983 51.6257 140.625 51.0143C160.256 50.4032 176.242 64.5022 176.25 82.4578V97.6507V117.59V177.946C176.25 186.321 183.161 194.642 193.277 194.12C203.19 193.61 209.501 185.286 209.501 176.911V113.975V96.6161V33.6806C209.501 15.7247 225.475 0.63095 245.126 0.0191567C264.777 -0.592246 280.751 13.5071 280.751 31.463V94.3984L297.375 93.8811C317.006 93.2701 333 107.369 333 125.325C333 143.27 317.026 158.374 297.375 158.986C277.724 159.598 261.75 145.488 261.75 127.542V112.349L228.499 113.384V176.32C228.499 194.268 212.525 209.369 192.874 209.981C173.235 210.592 157.249 196.485 157.249 178.537V115.602L140.625 116.119C120.983 116.73 105 102.623 105 84.6675ZM157.249 83.0492C157.24 74.6743 149.782 68.0914 140.625 68.3764C131.459 68.6618 124.001 75.7011 124.001 84.076C124.001 92.4616 131.459 99.0449 140.625 98.7595L157.249 98.2422V83.0492ZM261.75 32.0545C261.75 23.6792 254.292 17.0963 245.126 17.3817C235.958 17.6667 228.499 24.7142 228.499 33.0892V96.0246L261.75 94.9899V32.0545ZM280.751 111.758V126.951C280.751 135.326 288.21 141.909 297.375 141.624C306.541 141.339 313.999 134.292 313.999 125.916C313.999 117.538 306.541 110.956 297.375 111.241L280.751 111.758Z" fill="white"/>
</g>
<line x1="45" y1="221.5" x2="392" y2="221.5" stroke="white" stroke-width="5"/>
<path d="M148.089 242.711L143.124 243.111L132.794 293.721L123.745 293.24L113.815 243.912L108.851 244.072L109.251 236.305H125.507L126.147 243.512L121.503 243.912L128.31 284.832L135.837 243.111L130.872 243.271L131.272 235.504L147.528 235.104L148.089 242.711ZM174.675 286.193L174.515 292.6L166.267 293.4L165.866 288.756C165.306 289.37 164.652 289.957 163.904 290.518C163.184 291.051 162.396 291.545 161.542 291.999C160.715 292.426 159.847 292.76 158.939 293C158.059 293.267 157.191 293.4 156.337 293.4C154.682 293.4 153.281 293.08 152.133 292.439C151.012 291.772 150.104 290.905 149.41 289.837C148.743 288.743 148.262 287.501 147.969 286.113C147.675 284.725 147.528 283.311 147.528 281.869C147.528 280.054 147.822 278.399 148.409 276.904C149.023 275.41 149.864 274.142 150.932 273.101C152.026 272.033 153.334 271.219 154.855 270.658C156.377 270.071 158.045 269.777 159.86 269.777C160.581 269.777 161.288 269.831 161.982 269.938C162.703 270.018 163.41 270.178 164.104 270.418C164.158 269.964 164.185 269.537 164.185 269.137C164.185 268.736 164.185 268.309 164.185 267.855C164.185 267.615 164.171 267.228 164.145 266.694C164.118 266.134 164.064 265.52 163.984 264.853C163.931 264.159 163.838 263.451 163.704 262.73C163.571 261.983 163.384 261.316 163.144 260.729C162.93 260.115 162.663 259.621 162.343 259.247C162.049 258.847 161.675 258.646 161.222 258.646C160.715 258.646 160.221 258.82 159.74 259.167C159.26 259.514 158.806 259.968 158.379 260.528C157.952 261.062 157.551 261.676 157.178 262.37C156.831 263.037 156.51 263.705 156.217 264.372C155.923 265.039 155.67 265.667 155.456 266.254C155.243 266.814 155.082 267.268 154.976 267.615L148.169 267.295L147.929 252.4L154.575 252.24V258.086C154.842 257.392 155.202 256.671 155.656 255.924C156.11 255.176 156.631 254.509 157.218 253.922C157.832 253.308 158.499 252.814 159.22 252.44C159.967 252.04 160.768 251.84 161.622 251.84C163.651 251.84 165.279 252.147 166.507 252.761C167.761 253.375 168.709 254.242 169.35 255.363C170.017 256.458 170.457 257.792 170.671 259.367C170.884 260.915 170.991 262.624 170.991 264.492C170.991 268.122 170.965 271.739 170.911 275.343C170.858 278.946 170.671 282.563 170.351 286.193H174.675ZM164.345 283.471V277.625C163.971 277.091 163.41 276.744 162.663 276.584C161.942 276.424 161.275 276.344 160.661 276.344C158.739 276.344 157.178 276.824 155.977 277.785C154.775 278.719 154.175 280.214 154.175 282.27C154.175 283.524 154.508 284.592 155.176 285.473C155.843 286.327 156.844 286.754 158.179 286.754C158.606 286.754 159.166 286.701 159.86 286.594C160.581 286.46 161.262 286.26 161.902 285.993C162.57 285.726 163.144 285.393 163.624 284.992C164.104 284.565 164.345 284.058 164.345 283.471ZM201.221 283.711C201.221 285.206 200.927 286.58 200.34 287.835C199.779 289.063 199.005 290.144 198.018 291.078C197.03 291.986 195.882 292.693 194.574 293.2C193.293 293.707 191.932 293.961 190.49 293.961C189.156 293.961 187.941 293.601 186.847 292.88C185.752 292.159 184.805 291.318 184.004 290.357L183.123 293.801L178.078 293.4L178.479 280.107L186.166 280.188C186.113 280.508 186.073 280.841 186.046 281.188C186.019 281.535 186.006 281.869 186.006 282.189C186.006 282.83 186.086 283.457 186.246 284.071C186.406 284.659 186.646 285.192 186.967 285.673C187.287 286.153 187.701 286.54 188.208 286.834C188.742 287.101 189.369 287.234 190.09 287.234C190.597 287.234 191.064 287.114 191.491 286.874C191.945 286.607 192.319 286.273 192.612 285.873C192.933 285.473 193.173 285.032 193.333 284.552C193.52 284.071 193.613 283.604 193.613 283.15C193.613 282.003 193.346 280.988 192.812 280.107C192.305 279.2 191.651 278.386 190.851 277.665C190.05 276.944 189.169 276.304 188.208 275.743C187.247 275.156 186.326 274.635 185.445 274.182C184.004 273.434 182.803 272.647 181.842 271.819C180.908 270.992 180.16 270.084 179.6 269.097C179.039 268.082 178.639 266.961 178.398 265.733C178.185 264.506 178.078 263.104 178.078 261.529C178.078 260.061 178.358 258.7 178.919 257.445C179.506 256.191 180.294 255.11 181.281 254.202C182.269 253.268 183.403 252.547 184.685 252.04C185.993 251.533 187.367 251.279 188.809 251.279C190.143 251.279 191.358 251.64 192.452 252.36C193.547 253.081 194.494 253.922 195.295 254.883L196.176 251.439L201.221 251.84L200.82 265.133L193.133 265.053C193.186 264.732 193.226 264.399 193.253 264.052C193.28 263.705 193.293 263.371 193.293 263.051C193.293 262.41 193.213 261.796 193.053 261.209C192.893 260.595 192.652 260.048 192.332 259.567C192.012 259.087 191.585 258.713 191.051 258.446C190.544 258.153 189.93 258.006 189.209 258.006C188.702 258.006 188.235 258.139 187.808 258.406C187.381 258.646 187.007 258.967 186.687 259.367C186.366 259.768 186.113 260.208 185.926 260.688C185.766 261.169 185.686 261.636 185.686 262.09C185.686 263.264 185.926 264.305 186.406 265.213C186.913 266.12 187.541 266.935 188.288 267.655C189.062 268.376 189.916 269.03 190.851 269.617C191.812 270.178 192.759 270.685 193.693 271.139C195.081 271.859 196.243 272.633 197.177 273.461C198.138 274.288 198.912 275.209 199.499 276.224C200.113 277.238 200.553 278.359 200.82 279.587C201.087 280.815 201.221 282.189 201.221 283.711ZM229.008 283.711C229.008 285.206 228.714 286.58 228.127 287.835C227.566 289.063 226.792 290.144 225.805 291.078C224.817 291.986 223.669 292.693 222.361 293.2C221.08 293.707 219.719 293.961 218.277 293.961C216.943 293.961 215.728 293.601 214.634 292.88C213.539 292.159 212.592 291.318 211.791 290.357L210.91 293.801L205.865 293.4L206.266 280.107L213.953 280.188C213.9 280.508 213.86 280.841 213.833 281.188C213.806 281.535 213.793 281.869 213.793 282.189C213.793 282.83 213.873 283.457 214.033 284.071C214.193 284.659 214.434 285.192 214.754 285.673C215.074 286.153 215.488 286.54 215.995 286.834C216.529 287.101 217.156 287.234 217.877 287.234C218.384 287.234 218.851 287.114 219.278 286.874C219.732 286.607 220.106 286.273 220.399 285.873C220.72 285.473 220.96 285.032 221.12 284.552C221.307 284.071 221.4 283.604 221.4 283.15C221.4 282.003 221.133 280.988 220.6 280.107C220.092 279.2 219.438 278.386 218.638 277.665C217.837 276.944 216.956 276.304 215.995 275.743C215.034 275.156 214.113 274.635 213.232 274.182C211.791 273.434 210.59 272.647 209.629 271.819C208.695 270.992 207.947 270.084 207.387 269.097C206.826 268.082 206.426 266.961 206.186 265.733C205.972 264.506 205.865 263.104 205.865 261.529C205.865 260.061 206.146 258.7 206.706 257.445C207.293 256.191 208.081 255.11 209.068 254.202C210.056 253.268 211.19 252.547 212.472 252.04C213.78 251.533 215.154 251.279 216.596 251.279C217.93 251.279 219.145 251.64 220.239 252.36C221.334 253.081 222.281 253.922 223.082 254.883L223.963 251.439L229.008 251.84L228.607 265.133L220.92 265.053C220.973 264.732 221.013 264.399 221.04 264.052C221.067 263.705 221.08 263.371 221.08 263.051C221.08 262.41 221 261.796 220.84 261.209C220.68 260.595 220.439 260.048 220.119 259.567C219.799 259.087 219.372 258.713 218.838 258.446C218.331 258.153 217.717 258.006 216.996 258.006C216.489 258.006 216.022 258.139 215.595 258.406C215.168 258.646 214.794 258.967 214.474 259.367C214.153 259.768 213.9 260.208 213.713 260.688C213.553 261.169 213.473 261.636 213.473 262.09C213.473 263.264 213.713 264.305 214.193 265.213C214.701 266.12 215.328 266.935 216.075 267.655C216.849 268.376 217.703 269.03 218.638 269.617C219.599 270.178 220.546 270.685 221.48 271.139C222.868 271.859 224.03 272.633 224.964 273.461C225.925 274.288 226.699 275.209 227.286 276.224C227.9 277.238 228.34 278.359 228.607 279.587C228.874 280.815 229.008 282.189 229.008 283.711ZM243.462 288.436C243.462 289.13 243.328 289.784 243.062 290.397C242.795 291.011 242.421 291.545 241.94 291.999C241.487 292.453 240.939 292.813 240.299 293.08C239.685 293.347 239.031 293.48 238.337 293.48C237.643 293.48 236.989 293.347 236.375 293.08C235.761 292.813 235.227 292.453 234.773 291.999C234.32 291.545 233.959 291.011 233.692 290.397C233.425 289.784 233.292 289.13 233.292 288.436C233.292 287.742 233.425 287.088 233.692 286.474C233.959 285.833 234.32 285.286 234.773 284.832C235.227 284.352 235.761 283.978 236.375 283.711C236.989 283.444 237.643 283.311 238.337 283.311C239.031 283.311 239.685 283.444 240.299 283.711C240.939 283.978 241.487 284.352 241.94 284.832C242.421 285.286 242.795 285.833 243.062 286.474C243.328 287.088 243.462 287.742 243.462 288.436ZM265.523 285.072L265.123 292.279L248.627 292.68L248.387 285.232H253.111L253.031 244.312L248.066 244.473L248.467 236.705H264.322L264.963 243.912L260.318 244.312L259.918 285.232L265.523 285.072ZM302.199 287.314L301.398 293.721L287.945 293.16L287.785 286.674L291.309 286.273C291.389 282.643 291.455 279.026 291.509 275.423C291.589 271.819 291.629 268.202 291.629 264.572C291.629 263.932 291.562 263.264 291.429 262.57C291.322 261.876 291.122 261.236 290.828 260.648C290.535 260.061 290.121 259.581 289.587 259.207C289.08 258.833 288.426 258.646 287.625 258.646C286.451 258.646 285.45 258.98 284.622 259.647C283.821 260.288 283.167 261.089 282.66 262.05C282.153 263.011 281.779 264.052 281.539 265.173C281.299 266.294 281.165 267.322 281.139 268.256C281.005 271.272 280.912 274.275 280.858 277.265C280.832 280.254 280.792 283.257 280.738 286.273H284.262L284.662 292.76L270.809 292.92V285.553L274.732 285.312L274.492 259.287L268.646 258.887L268.807 252.08L280.338 251.68L280.578 257.365C281.112 256.564 281.739 255.804 282.46 255.083C283.207 254.336 284.021 253.682 284.902 253.121C285.783 252.561 286.704 252.12 287.665 251.8C288.653 251.453 289.654 251.279 290.668 251.279C291.869 251.279 292.897 251.479 293.751 251.88C294.605 252.28 295.326 252.827 295.913 253.521C296.5 254.215 296.954 255.016 297.274 255.924C297.621 256.805 297.888 257.752 298.075 258.767C298.262 259.754 298.382 260.769 298.436 261.81C298.489 262.824 298.516 263.798 298.516 264.732C298.516 268.443 298.462 272.14 298.355 275.823C298.275 279.507 298.195 283.204 298.115 286.914L302.199 287.314ZM330.707 252.08L330.307 268.496L323.82 268.336C323.794 267.589 323.687 266.654 323.5 265.533C323.34 264.385 323.06 263.278 322.659 262.21C322.259 261.116 321.712 260.181 321.018 259.407C320.324 258.633 319.443 258.246 318.375 258.246C317.521 258.246 316.787 258.526 316.173 259.087C315.586 259.647 315.092 260.368 314.691 261.249C314.291 262.13 313.971 263.118 313.73 264.212C313.49 265.306 313.303 266.387 313.17 267.455C313.063 268.523 312.996 269.524 312.97 270.458C312.943 271.366 312.93 272.1 312.93 272.66C312.93 273.274 312.93 274.048 312.93 274.982C312.956 275.89 313.01 276.864 313.09 277.905C313.197 278.92 313.343 279.947 313.53 280.988C313.744 282.003 314.051 282.924 314.451 283.751C314.878 284.578 315.399 285.246 316.013 285.753C316.653 286.26 317.441 286.514 318.375 286.514C319.469 286.514 320.377 286.14 321.098 285.393C321.818 284.645 322.392 283.751 322.819 282.71C323.273 281.642 323.58 280.535 323.74 279.387C323.927 278.239 324.034 277.251 324.061 276.424H330.467C330.44 278.239 330.2 280.134 329.746 282.109C329.292 284.085 328.572 285.913 327.584 287.595C326.623 289.25 325.382 290.624 323.86 291.719C322.339 292.786 320.51 293.32 318.375 293.32C316.507 293.32 314.878 293.013 313.49 292.399C312.129 291.785 310.954 290.958 309.967 289.917C309.006 288.849 308.218 287.621 307.604 286.233C306.991 284.819 306.51 283.351 306.163 281.829C305.816 280.281 305.576 278.706 305.442 277.104C305.309 275.503 305.242 273.968 305.242 272.5C305.242 271.219 305.322 269.817 305.482 268.296C305.643 266.748 305.91 265.2 306.283 263.651C306.684 262.103 307.204 260.595 307.845 259.127C308.485 257.659 309.273 256.364 310.207 255.243C311.168 254.122 312.276 253.228 313.53 252.561C314.812 251.867 316.293 251.52 317.975 251.52C319.309 251.52 320.577 251.867 321.778 252.561C322.979 253.255 324.007 254.109 324.861 255.123L325.662 251.68L330.707 252.08Z" fill="white"/>
<defs>
<filter id="filter0_d_4_9" x="101" y="0" width="236" height="218" filterUnits="userSpaceOnUse" color-interpolation-filters="sRGB">
<feFlood flood-opacity="0" result="BackgroundImageFix"/>
<feColorMatrix in="SourceAlpha" type="matrix" values="0 0 0 0 0 0 0 0 0 0 0 0 0 0 0 0 0 0 127 0" result="hardAlpha"/>
<feOffset dy="4"/>
<feGaussianBlur stdDeviation="2"/>
<feComposite in2="hardAlpha" operator="out"/>
<feColorMatrix type="matrix" values="0 0 0 0 0 0 0 0 0 0 0 0 0 0 0 0 0 0 0.25 0"/>
<feBlend mode="normal" in2="BackgroundImageFix" result="effect1_dropShadow_4_9"/>
<feBlend mode="normal" in="SourceGraphic" in2="effect1_dropShadow_4_9" result="shape"/>
</filter>
</defs>
</svg>
