<svg width="257" height="228" viewBox="0 0 257 228" fill="none" xmlns="http://www.w3.org/2000/svg">
<g style="mix-blend-mode:difference" filter="url(#filter0_d_1_6)">
<path d="M4 88.4915C4 69.7327 21.407 53.9573 42.7998 53.3183C64.1796 52.6797 81.5899 67.4154 81.5992 86.1819V102.061V122.901V185.983C81.5992 194.736 89.1259 203.432 100.144 202.888C110.94 202.354 117.813 193.655 117.813 184.901V119.123V100.98V35.2018C117.813 16.4349 135.211 0.659446 156.613 0.0200219C178.015 -0.618994 195.412 14.1171 195.412 32.884V98.6619L213.518 98.1212C234.898 97.4826 252.317 112.218 252.317 130.985C252.317 149.741 234.919 165.527 213.518 166.167C192.116 166.806 174.718 152.058 174.718 133.303V117.424L138.504 118.505V184.283C138.504 203.042 121.106 218.825 99.7047 219.464C78.3152 220.104 60.9049 205.36 60.9049 186.601V120.823L42.7998 121.364C21.407 122.002 4 107.258 4 88.4915ZM60.9049 86.8001C60.8956 78.0469 52.7728 71.1666 42.7998 71.4645C32.8171 71.7628 24.6943 79.1201 24.6943 87.8733C24.6943 96.6375 32.8171 103.518 42.7998 103.22L60.9049 102.679V86.8001ZM174.718 33.5023C174.718 24.7486 166.595 17.8684 156.613 18.1667C146.627 18.4646 138.504 25.8304 138.504 34.5836V100.361L174.718 99.2801V33.5023ZM195.412 116.806V132.684C195.412 141.438 203.536 148.318 213.518 148.02C223.5 147.722 231.623 140.357 231.623 131.603C231.623 122.847 223.5 115.967 213.518 116.265L195.412 116.806Z" fill="#ae6d90"/>
</g>
<defs>
<filter id="filter0_d_1_6" x="0" y="0" width="256.317" height="227.484" filterUnits="userSpaceOnUse" color-interpolation-filters="sRGB">
<feFlood flood-opacity="0" result="BackgroundImageFix"/>
<feColorMatrix in="SourceAlpha" type="matrix" values="0 0 0 0 0 0 0 0 0 0 0 0 0 0 0 0 0 0 127 0" result="hardAlpha"/>
<feOffset dy="4"/>
<feGaussianBlur stdDeviation="2"/>
<feComposite in2="hardAlpha" operator="out"/>
<feColorMatrix type="matrix" values="0 0 0 0 0 0 0 0 0 0 0 0 0 0 0 0 0 0 0.25 0"/>
<feBlend mode="normal" in2="BackgroundImageFix" result="effect1_dropShadow_1_6"/>
<feBlend mode="normal" in="SourceGraphic" in2="effect1_dropShadow_1_6" result="shape"/>
</filter>
</defs>
</svg>
