<svg xmlns="http://www.w3.org/2000/svg" version="1.1" xmlns:xlink="http://www.w3.org/1999/xlink" viewBox="0 0 700 700" style="overflow: hidden; display: block;" width="700" height="700"><defs><linearGradient id="two-15" x1="350" y1="-350" x2="350" y2="350" spreadMethod="pad" gradientUnits="userSpaceOnUse"><stop offset="0%" stop-color="hsl(37, 99%, 67%)" stop-opacity="1"></stop><stop offset="100%" stop-color="hsl(316, 73%, 52%)" stop-opacity="1"></stop></linearGradient></defs><g id="two-0" transform="matrix(1 0 0 1 0 0)" opacity="1"><path transform="matrix(1 0 0 1 350 350)" id="two-131" d="M 132.104919 40.748971 C 122.66814 110.124618 313.718933 129.712219 281.18574 191.709191 C 257.93137 236.023946 179.868368 179.409185 131.844613 165.327916 C 104.362099 157.269639 76.933275 118.225238 51.760751 131.884243 C 3.86848 157.871339 68.614447 266.000705 22.055252 294.306891 C -2.539959 309.259826 -40.683483 288.792923 -61.339792 268.747187 C -86.92959 243.913789 -63.45924 180.812893 -96.088752 166.430598 C -148.129041 143.492504 -217.838186 279.564082 -253.930348 235.61293 C -297.485855 182.573307 -105.465032 126.963867 -134.989096 65.007322 C -163.439439 5.303991 -320.157175 114.951597 -334.872159 50.473856 C -346.660832 -1.181445 -231.906867 9.141961 -195.645182 -29.488767 C -182.473256 -43.521238 -169.486187 -62.554594 -169.853478 -81.797124 C -170.944466 -138.954366 -293.800326 -194.77796 -252.337579 -234.135058 C -201.576595 -282.31819 -134.531397 -93.475891 -71.348387 -123.579031 C -35.548882 -140.635476 -73.661993 -207.486816 -55.390515 -242.681702 C -39.018778 -274.217271 -10.768606 -307.014469 23.664626 -315.782502 C 53.754159 -323.44446 97.856956 -318.686532 114.885151 -292.722594 C 149.188723 -240.417823 35.456908 -144.783949 84.265889 -105.666084 C 131.998585 -67.410806 198.113618 -193.652334 256.28493 -174.732107 C 285.981511 -165.07329 310.766355 -125.503352 306.55739 -94.560432 C 300.322131 -48.720877 240.423765 -27.284761 203.064896 -0.000001 C 181.258325 15.926259 135.744495 13.992181 132.104919 40.748971 Z " fill="url(#two-15)" stroke="undefined" stroke-width="1" stroke-opacity="1" fill-opacity="1" visibility="visible" stroke-linecap="butt" stroke-linejoin="miter" stroke-miterlimit="4"></path></g></svg>