
<svg width="282" height="395" viewBox="0 0 282 395" fill="none" xmlns="http://www.w3.org/2000/svg">
<mask id="mask0_17_17" style="mask-type:alpha" maskUnits="userSpaceOnUse" x="4" y="6" width="274" height="381">
<path d="M109.9 258.224L116.012 381.339L22.5096 386.268L4.14106 16.2904L41.3168 14.3309C50.3292 13.8559 63.7331 12.7276 81.528 10.9455C99.3125 8.95325 114.025 7.64995 125.666 7.03637C166.221 4.89874 196.947 13.3022 217.842 32.2461C238.924 51.1801 250.489 81.2718 252.537 122.521C253.749 146.933 250.038 168.862 241.402 188.308C232.955 207.744 221.216 223.449 206.186 235.424C214.75 237.294 222.245 242.28 228.671 250.381C235.285 258.473 240.569 268.217 244.524 279.613C248.468 290.8 251.952 302.222 254.978 313.879C258.181 325.316 261.661 336.631 265.417 347.827C269.361 359.013 273.446 367.344 277.67 372.818L173.747 378.296C171.536 375.46 169.532 367.335 167.737 353.925C165.931 340.304 163.526 324.078 160.52 305.246C157.692 286.193 154.175 270.344 149.97 257.694C149.595 257.714 149.125 257.739 148.562 257.769C144.995 257.957 141.146 258.16 137.015 258.377C133.062 258.375 129.578 258.347 126.564 258.295C123.549 258.243 120.346 258.201 116.956 258.168C113.754 258.126 111.402 258.145 109.9 258.224ZM106.985 199.507L115.997 199.032C120.691 198.785 124.624 198.367 127.795 197.777C130.965 197.189 134.402 196.269 138.105 195.018C141.985 193.548 145.083 191.486 147.399 188.832C149.902 186.167 152.181 182.777 154.235 178.66C156.29 174.542 157.724 169.297 158.537 162.924C159.35 156.551 159.547 149.156 159.129 140.737L157.891 115.799C156.982 97.489 152.032 84.9845 143.04 78.284C134.225 71.3635 121.838 68.3241 105.879 69.1653L100.528 69.4473L106.985 199.507Z" fill="#D9D9D9"/>
</mask>
<g mask="url(#mask0_17_17)">
<rect x="343.122" y="131.411" width="473" height="161" transform="rotate(175.524 343.122 131.411)" fill="#FF00E6"/>
<rect x="-85" y="135.902" width="473" height="161" fill="#1AFF00"/>
<rect x="-80" y="261" width="473" height="161" fill="#FAFF00"/>
</g>
</svg>
