
<svg width="349" height="227" viewBox="0 0 349 227" fill="none" xmlns="http://www.w3.org/2000/svg">
<rect width="349" height="227" rx="13" fill="black"/>
<rect x="15" y="141" width="320" height="75" rx="10" fill="#CDCDCD"/>
<path d="M48.792 94.72V128H20.4613V27.9893H31.7253C34.456 27.9893 38.5236 27.8756 43.928 27.648C49.3324 27.3636 53.7982 27.2213 57.3253 27.2213C69.6133 27.2213 78.7724 29.9236 84.8027 35.328C90.8898 40.7324 93.9333 49.0098 93.9333 60.16C93.9333 66.7591 92.4827 72.6187 89.5813 77.7387C86.7369 82.8587 82.9538 86.9262 78.232 89.9413C80.792 90.5671 82.9822 92.0178 84.8027 94.2933C86.68 96.5689 88.1307 99.2711 89.1547 102.4C90.1787 105.472 91.0604 108.601 91.8 111.787C92.5964 114.916 93.4782 118.016 94.4453 121.088C95.4693 124.16 96.5787 126.464 97.7733 128H66.2853C65.6596 127.204 65.176 124.985 64.8347 121.344C64.4933 117.646 64.0098 113.237 63.384 108.117C62.8151 102.94 61.9902 98.6169 60.9093 95.1467C60.7956 95.1467 60.6533 95.1467 60.4827 95.1467C59.4018 95.1467 58.2356 95.1467 56.984 95.1467C55.7893 95.0898 54.7369 95.0329 53.8267 94.976C52.9164 94.9191 51.9493 94.8622 50.9253 94.8053C49.9582 94.7484 49.2471 94.72 48.792 94.72ZM48.792 78.848H51.5227C52.9449 78.848 54.1396 78.7911 55.1067 78.6773C56.0738 78.5636 57.1262 78.3644 58.264 78.08C59.4587 77.7387 60.4258 77.2267 61.1653 76.544C61.9618 75.8613 62.7013 74.9796 63.384 73.8987C64.0667 72.8178 64.5787 71.424 64.92 69.7173C65.2613 68.0107 65.432 66.0196 65.432 63.744V57.0027C65.432 52.0533 64.1236 48.6116 61.5067 46.6773C58.9467 44.6862 55.2489 43.6907 50.4133 43.6907H48.792V78.848Z" fill="#E700BD"/>
<path d="M163.719 128H103.217V27.9893H162.439L160.732 48.128L131.463 47.2747V66.56H154.503V86.528L131.463 84.8213V107.52L163.719 106.667V128Z" fill="#20CDDB"/>
<path d="M199.713 128H171.467V27.9893H182.731C185.746 27.9893 190.298 27.8756 196.385 27.648C202.472 27.3636 207.478 27.2213 211.403 27.2213C222.44 27.2213 230.802 30.1511 236.491 36.0107C242.18 41.8702 245.025 50.6596 245.025 62.3787C245.025 69.4329 244.086 75.8613 242.209 81.664C240.388 87.4098 237.914 92.1316 234.785 95.8293C231.656 99.5271 228.1 102.372 224.118 104.363C220.136 106.354 215.926 107.349 211.489 107.349C210.92 107.349 210.322 107.349 209.697 107.349C209.128 107.349 208.587 107.349 208.075 107.349C207.62 107.292 207.051 107.264 206.369 107.264C205.743 107.207 205.231 107.179 204.833 107.179C204.491 107.122 203.979 107.093 203.297 107.093C202.671 107.036 202.244 107.008 202.017 107.008C201.789 107.008 201.362 106.98 200.737 106.923C200.111 106.866 199.77 106.837 199.713 106.837V128ZM217.035 58.624C217.035 54.4142 215.898 51.0009 213.622 48.384C211.346 45.7671 208.075 44.4587 203.809 44.4587H199.713V88.832H202.87C207.364 88.832 210.834 87.3244 213.281 84.3093C215.784 81.2942 217.035 76.9422 217.035 71.2533V58.624Z" fill="#D1D433"/>
<path d="M280.395 89.344C280.395 98.7876 281.106 105.358 282.529 109.056C284.008 112.754 286.568 114.603 290.209 114.603C292.882 114.603 294.902 113.948 296.267 112.64C297.633 111.275 298.657 108.516 299.339 104.363C300.079 100.153 300.449 93.8667 300.449 85.504V64.9387C300.449 56.8036 299.652 50.7449 298.059 46.7627C296.466 42.7804 293.85 40.7893 290.209 40.7893C286.568 40.7893 284.008 42.752 282.529 46.6773C281.106 50.5458 280.395 57.6284 280.395 67.9253V89.344ZM288.417 129.792C283.695 129.792 279.428 129.365 275.617 128.512C271.862 127.659 268.619 126.464 265.889 124.928C263.158 123.392 260.769 121.429 258.721 119.04C256.73 116.651 255.108 114.091 253.857 111.36C252.662 108.629 251.695 105.444 250.955 101.803C250.216 98.1049 249.704 94.4356 249.419 90.7947C249.135 87.0969 248.993 82.944 248.993 78.336C248.993 71.5093 249.334 65.5644 250.017 60.5013C250.756 55.4382 252.093 50.688 254.027 46.2507C255.962 41.7564 258.522 38.1156 261.707 35.328C264.95 32.5404 269.103 30.3502 274.166 28.7573C279.286 27.1644 285.316 26.368 292.257 26.368C297.035 26.368 301.33 26.8231 305.142 27.7333C308.954 28.5867 312.225 29.7813 314.955 31.3173C317.686 32.8533 320.047 34.8444 322.038 37.2907C324.086 39.7369 325.707 42.3538 326.902 45.1413C328.154 47.872 329.149 51.0862 329.889 54.784C330.628 58.4818 331.14 62.1511 331.425 65.792C331.709 69.4329 331.851 73.5573 331.851 78.1653C331.851 84.992 331.482 90.9369 330.742 96C330.002 101.063 328.666 105.813 326.731 110.251C324.797 114.631 322.209 118.215 318.966 121.003C315.723 123.733 311.542 125.895 306.422 127.488C301.359 129.024 295.357 129.792 288.417 129.792Z" fill="#26D912"/>
<path d="M38.2138 206.08V160.72H36.6938L37.8138 150.08H49.0938V195.36H64.3738L63.7338 206H49.0938V206.08H38.2138ZM67.9013 206V160.64H66.3813L67.5013 150H78.7813V206H67.9013ZM95.6769 183.36L96.3169 172.72H109.757V194.88C109.757 198.933 108.85 201.867 107.037 203.68C105.277 205.44 102.344 206.32 98.2369 206.32H93.9169C89.8102 206.32 86.8502 205.44 85.0369 203.68C83.2769 201.867 82.3969 198.933 82.3969 194.88V161.12C82.3969 157.013 83.2769 154.08 85.0369 152.32C86.8502 150.56 89.8102 149.68 93.9169 149.68H98.2369C102.344 149.68 105.277 150.56 107.037 152.32C108.85 154.08 109.757 157.013 109.757 161.12V169.04L98.8769 167.84V160.72C98.8769 160.453 98.7435 160.32 98.4769 160.32H93.6769C93.4102 160.32 93.2769 160.453 93.2769 160.72V195.28C93.2769 195.547 93.4102 195.68 93.6769 195.68H98.4769C98.7435 195.68 98.8769 195.547 98.8769 195.28V183.36H95.6769ZM113.683 206V160.64H112.163L113.283 150H124.563V174.32H128.963V150H139.843V206H128.963V184.96H124.563V206H113.683ZM150.462 206V160.64H143.022V150H168.702V160.64H161.342V206H150.462ZM173.448 206V160.64H171.928L173.048 150H184.328V174.32H188.728V150H199.608V206H188.728V184.96H184.328V206H173.448ZM230.129 194.88C230.129 198.933 229.222 201.867 227.409 203.68C225.649 205.44 222.715 206.32 218.609 206.32H215.089C210.982 206.32 208.022 205.44 206.209 203.68C204.449 201.867 203.569 198.933 203.569 194.88V161.12C203.569 157.013 204.449 154.08 206.209 152.32C208.022 150.56 210.982 149.68 215.089 149.68H218.609C222.715 149.68 225.649 150.56 227.409 152.32C229.222 154.08 230.129 157.013 230.129 161.12V194.88ZM214.849 160.32C214.582 160.32 214.449 160.453 214.449 160.72V195.28C214.449 195.547 214.582 195.68 214.849 195.68H218.849C219.115 195.68 219.249 195.547 219.249 195.28V160.72C219.249 160.453 219.115 160.32 218.849 160.32H214.849ZM262.205 194.88C262.205 198.933 261.298 201.867 259.485 203.68C257.725 205.44 254.792 206.32 250.685 206.32H246.365C242.258 206.32 239.298 205.44 237.485 203.68C235.725 201.867 234.845 198.933 234.845 194.88V160.64H233.325L234.445 150H245.725V195.28C245.725 195.547 245.858 195.68 246.125 195.68H250.925C251.192 195.68 251.325 195.547 251.325 195.28V150H262.205V194.88ZM275.455 188.4V195.6C275.455 195.867 275.588 196 275.855 196H278.175C278.442 196 278.575 195.867 278.575 195.6L278.655 184.96L269.615 181.04C267.588 180.133 266.228 179.2 265.535 178.24C264.895 177.28 264.575 175.813 264.575 173.84V160.8C264.575 156.693 265.455 153.76 267.215 152C268.975 150.24 271.828 149.36 275.775 149.36H279.135C282.868 149.52 285.535 150.507 287.135 152.32C288.735 154.08 289.535 156.907 289.535 160.8V170.8L278.655 169.6V160.4C278.655 160.133 278.522 160 278.255 160H275.855C275.588 160 275.455 160.133 275.455 160.4V172.16L284.495 176.08C286.522 176.933 287.855 177.867 288.495 178.88C289.188 179.84 289.535 181.307 289.535 183.28V195.2C289.535 199.093 288.735 201.947 287.135 203.76C285.535 205.52 282.868 206.48 279.135 206.64H275.935C271.882 206.64 268.975 205.76 267.215 204C265.455 202.187 264.575 199.253 264.575 195.2V188.4H275.455ZM293.839 206V160.64H292.319L293.439 150H316.319L315.679 160.64H304.719V172.64H314.559L313.919 183.28H304.719V195.36H316.319L315.679 206H293.839Z" fill="black"/>
</svg>
