
<svg width="341" height="137" viewBox="0 0 341 137" fill="none" xmlns="http://www.w3.org/2000/svg">
<g clip-path="url(#clip0_5_2)">
<rect width="341" height="137" rx="9" fill="white"/>
<g clip-path="url(#clip1_5_2)">
<path d="M335.739 -5H6.26075C-1.06296 -5 -7 -1.15399 -7 3.59031V136.41C-7 141.154 -1.06296 145 6.26075 145H335.739C343.063 145 349 141.154 349 136.41V3.59031C349 -1.15399 343.063 -5 335.739 -5Z" fill="black"/>
<path d="M43.3307 86.1476V118.841H15V20.5927H26.264C28.9947 20.5927 33.0623 20.481 38.4667 20.2575C43.8711 19.9781 48.3369 19.8383 51.864 19.8383C64.152 19.8383 73.3111 22.493 79.3414 27.8021C85.4285 33.1113 88.472 41.2428 88.472 52.1966C88.472 58.6794 87.0214 64.4357 84.12 69.4655C81.2756 74.4953 77.4925 78.4911 72.7707 81.4531C75.3307 82.0679 77.5209 83.493 79.3414 85.7284C81.2187 87.9639 82.6694 90.6185 83.6934 93.6922C84.7174 96.7101 85.5991 99.784 86.3387 102.914C87.1351 105.988 88.0169 109.033 88.984 112.051C90.008 115.069 91.1174 117.332 92.312 118.841H60.824C60.1983 118.059 59.7147 115.879 59.3734 112.302C59.032 108.67 58.5485 104.338 57.9227 99.3085C57.3538 94.2227 56.5289 89.9758 55.448 86.5668C55.3343 86.5668 55.192 86.5668 55.0214 86.5668C53.9405 86.5668 52.7743 86.5668 51.5227 86.5668C50.328 86.5109 49.2756 86.455 48.3654 86.3991C47.4551 86.3432 46.488 86.2873 45.464 86.2314C44.4969 86.1755 43.7858 86.1476 43.3307 86.1476ZM43.3307 70.5553H46.0614C47.4836 70.5553 48.6783 70.4994 49.6454 70.3876C50.6125 70.2759 51.6649 70.0802 52.8027 69.8008C53.9974 69.4655 54.9645 68.9625 55.704 68.2919C56.5005 67.6212 57.24 66.755 57.9227 65.6932C58.6054 64.6313 59.1174 63.2621 59.4587 61.5854C59.8 59.9089 59.9707 57.9529 59.9707 55.7174V49.0949C59.9707 44.2327 58.6623 40.8517 56.0454 38.9514C53.4854 36.9954 49.7876 36.0175 44.952 36.0175H43.3307V70.5553Z" fill="#D9D9D9"/>
<path d="M158.258 118.841H97.7557V20.5927H156.978L155.271 40.3766L126.002 39.5383V58.4838H149.042V78.0999L126.002 76.4233V98.722L158.258 97.884V118.841Z" fill="#D92617"/>
<path d="M194.252 118.841H166.006V20.5927H177.27C180.285 20.5927 184.837 20.481 190.924 20.2575C197.011 19.9781 202.017 19.8383 205.942 19.8383C216.979 19.8383 225.341 22.7164 231.03 28.4728C236.719 34.229 239.564 42.8636 239.564 54.3762C239.564 61.3061 238.625 67.6212 236.748 73.3216C234.927 78.9662 232.453 83.6048 229.324 87.2373C226.195 90.87 222.639 93.6647 218.657 95.6207C214.675 97.5766 210.465 98.554 206.028 98.554C205.459 98.554 204.861 98.554 204.236 98.554C203.667 98.554 203.126 98.554 202.614 98.554C202.159 98.498 201.59 98.4705 200.908 98.4705C200.282 98.4145 199.77 98.387 199.372 98.387C199.03 98.331 198.518 98.3025 197.836 98.3025C197.21 98.2466 196.783 98.219 196.556 98.219C196.328 98.219 195.901 98.1915 195.276 98.1355C194.65 98.0795 194.309 98.0511 194.252 98.0511V118.841ZM211.574 50.6876C211.574 46.552 210.437 43.1988 208.161 40.6281C205.885 38.0573 202.614 36.7719 198.348 36.7719H194.252V80.3633H197.409C201.903 80.3633 205.373 78.8823 207.82 75.9203C210.323 72.9584 211.574 68.683 211.574 63.0944V50.6876Z" fill="#D1D433"/>
<path d="M274.934 80.8663C274.934 90.1435 275.645 96.5981 277.068 100.231C278.547 103.864 281.107 105.68 284.748 105.68C287.421 105.68 289.441 105.037 290.806 103.752C292.172 102.411 293.196 99.7005 293.878 95.6206C294.618 91.4848 294.988 85.3093 294.988 77.094V56.891C294.988 48.8993 294.191 42.9473 292.598 39.0353C291.005 35.1232 288.389 33.1672 284.748 33.1672C281.107 33.1672 278.547 35.0953 277.068 38.9514C275.645 42.7518 274.934 49.7096 274.934 59.825V80.8663ZM282.956 120.602C278.234 120.602 273.967 120.182 270.156 119.344C266.401 118.506 263.158 117.332 260.428 115.823C257.697 114.314 255.308 112.386 253.26 110.039C251.269 107.692 249.647 105.177 248.396 102.494C247.201 99.8115 246.234 96.6826 245.494 93.1057C244.755 89.4728 244.243 85.8682 243.958 82.2914C243.674 78.6588 243.532 74.5791 243.532 70.0523C243.532 63.3459 243.873 57.5057 244.556 52.5318C245.295 47.558 246.632 42.8915 248.566 38.5323C250.501 34.1172 253.061 30.5406 256.246 27.8021C259.489 25.0636 263.642 22.912 268.705 21.3472C273.825 19.7824 279.855 19 286.796 19C291.574 19 295.869 19.4471 299.681 20.3412C303.493 21.1796 306.764 22.3532 309.494 23.8621C312.225 25.371 314.586 27.327 316.577 29.7302C318.625 32.1333 320.246 34.7041 321.441 37.4425C322.693 40.1251 323.688 43.2826 324.428 46.9153C325.167 50.5479 325.679 54.1526 325.964 57.7293C326.248 61.306 326.39 65.3578 326.39 69.8846C326.39 76.591 326.021 82.4311 325.281 87.405C324.541 92.3788 323.205 97.0451 321.27 101.405C319.336 105.708 316.748 109.229 313.505 111.967C310.262 114.649 306.081 116.773 300.961 118.338C295.898 119.847 289.896 120.602 282.956 120.602Z" fill="#26D912"/>
</g>
</g>
<defs>
<clipPath id="clip0_5_2">
<rect width="341" height="137" rx="9" fill="white"/>
</clipPath>
<clipPath id="clip1_5_2">
<rect y="-1" width="349" height="147" rx="1" fill="white"/>
</clipPath>
</defs>
</svg>
