

<svg width="2124" height="2500" viewBox="0 0 2124 2500" fill="none" xmlns="http://www.w3.org/2000/svg">
<g clip-path="url(#clip0_44_7)">
<path d="M249.835 2500C183.574 2500 120.028 2473.66 73.1749 2426.78C26.3218 2379.89 0 2316.3 0 2250L0 1000C0 933.696 26.3218 870.107 73.1749 823.223C120.028 776.339 183.574 750 249.835 750C316.095 750 379.642 776.339 426.495 823.223C473.348 870.107 499.67 933.696 499.67 1000V2250C499.67 2316.3 473.348 2379.89 426.495 2426.78C379.642 2473.66 316.095 2500 249.835 2500Z" fill="#20D0E0"/>
<path d="M2123.6 750C2123.6 651.509 2104.21 553.982 2066.54 462.987C2028.88 371.993 1973.67 289.314 1904.07 219.67C1834.47 150.026 1751.85 94.7814 1660.91 57.0903C1569.98 19.3993 1472.52 0 1374.09 0L249.835 0C183.574 0 120.028 26.3392 73.1749 73.2233C26.3218 120.107 0 183.696 0 250C0 316.304 26.3218 379.893 73.1749 426.777C120.028 473.661 183.574 500 249.835 500H1374.09C1440.35 500 1503.9 526.339 1550.75 573.223C1597.6 620.107 1623.93 683.696 1623.93 750C1623.93 816.304 1597.6 879.893 1550.75 926.777C1503.9 973.661 1440.35 1000 1374.09 1000H1124.26C1077.86 1000 1032.38 1012.93 992.911 1037.34C953.443 1061.75 921.547 1096.67 900.798 1138.2C880.048 1179.72 871.264 1226.21 875.431 1272.45C879.598 1318.69 896.55 1362.86 924.389 1400L1673.89 2400C1697.16 2431.05 1727.34 2456.25 1762.03 2473.61C1796.72 2490.96 1834.98 2500 1873.76 2500C1940.02 2500 2003.57 2473.66 2050.42 2426.78C2097.27 2379.89 2123.6 2316.3 2123.6 2250C2123.6 2195.91 2106.06 2143.27 2073.63 2100L1598.94 1465.75C1751.14 1417.86 1884.09 1322.61 1978.45 1193.88C2072.81 1065.15 2123.66 909.648 2123.6 750Z" fill="#FF00BD"/>
</g>
<defs>
<clipPath id="clip0_44_7">
<rect width="2123.6" height="2500" fill="white"/>
</clipPath>
</defs>
</svg>
